<?xml version="1.0" encoding="UTF-8" standalone="no"?>
<!-- Created with Inkscape (http://www.inkscape.org/) -->

<svg
   width="297mm"
   height="88mm"
   viewBox="0 0 297 88"
   version="1.1"
   id="svg40991"
   inkscape:version="1.2.2 (732a01da63, 2022-12-09)"
   sodipodi:docname="Tugas1.svg"
   inkscape:export-filename="Tugas1.png"
   inkscape:export-xdpi="96"
   inkscape:export-ydpi="96"
   xmlns:inkscape="http://www.inkscape.org/namespaces/inkscape"
   xmlns:sodipodi="http://sodipodi.sourceforge.net/DTD/sodipodi-0.dtd"
   xmlns:xlink="http://www.w3.org/1999/xlink"
   xmlns="http://www.w3.org/2000/svg"
   xmlns:svg="http://www.w3.org/2000/svg">
  <sodipodi:namedview
     id="namedview40993"
     pagecolor="#ffffff"
     bordercolor="#000000"
     borderopacity="0.25"
     inkscape:showpageshadow="2"
     inkscape:pageopacity="0.0"
     inkscape:pagecheckerboard="0"
     inkscape:deskcolor="#d1d1d1"
     inkscape:document-units="mm"
     showgrid="false"
     inkscape:zoom="1.0129245"
     inkscape:cx="476.34349"
     inkscape:cy="125.87315"
     inkscape:window-width="1920"
     inkscape:window-height="991"
     inkscape:window-x="-9"
     inkscape:window-y="-9"
     inkscape:window-maximized="1"
     inkscape:current-layer="layer1" />
  <defs
     id="defs40988">
    <linearGradient
       id="linearGradient43296">
      <stop
         style="stop-color:#00ffff;stop-opacity:1"
         offset="0"
         id="stop44777" />
      <stop
         style="stop-color:#ffffff;stop-opacity:0.48235294;"
         offset="0.52836716"
         id="stop44779" />
      <stop
         style="stop-color:#da6b00;stop-opacity:1;"
         offset="1"
         id="stop44781" />
    </linearGradient>
    <linearGradient
       inkscape:collect="always"
       xlink:href="#linearGradient43296"
       id="linearGradient43298"
       x1="-19.578358"
       y1="45.067162"
       x2="293.67542"
       y2="46.914177"
       gradientUnits="userSpaceOnUse" />
  </defs>
  <g
     inkscape:label="Layer 1"
     inkscape:groupmode="layer"
     id="layer1">
    <rect
       style="font-variation-settings:normal;opacity:1;vector-effect:none;fill:url(#linearGradient43298);fill-opacity:1;fill-rule:evenodd;stroke-width:0.264583;stroke-linecap:butt;stroke-linejoin:miter;stroke-miterlimit:4;stroke-dasharray:none;stroke-dashoffset:0;stroke-opacity:1;-inkscape-stroke:none;stop-color:#000000;stop-opacity:1"
       id="rect43290"
       width="297.36942"
       height="87.917915"
       x="0"
       y="0.36940297" />
    <path
       style="fill:#ff6600;stroke:#000000;stroke-width:0;stroke-dasharray:none;stroke-opacity:0.985663;paint-order:markers stroke fill"
       d="m -0.42052273,87.873852 c 0,0 23.10577173,-76.809512 148.25397273,-42.982318 73.49621,19.865809 148.74211,-43.0094452 147.97926,-4.399094 -0.36248,18.346717 0.49961,47.501025 0.49961,47.501025"
       id="path54216-5"
       sodipodi:nodetypes="cssc" />
    <path
       style="fill:#008080;stroke:#000000;stroke-width:0;stroke-dasharray:none;stroke-opacity:0.985663;paint-order:markers stroke fill"
       d="m 0.03018,87.651727 c 0,0 23.134536,-63.637386 148.43854,-35.611245 73.5877,16.459005 148.92728,-35.633721 148.16348,-3.64469 -0.36294,15.200424 0.50022,39.355035 0.50022,39.355035"
       id="path54216"
       sodipodi:nodetypes="cssc" />
    <text
       xml:space="preserve"
       style="font-size:12.7px;font-family:Arial;-inkscape-font-specification:Arial;text-align:center;text-anchor:middle;fill:#ff6600;stroke:#000000;stroke-width:0;stroke-dasharray:none;stroke-opacity:0.985663;paint-order:markers stroke fill"
       x="56.14925"
       y="16.623135"
       id="text57924"><tspan
         sodipodi:role="line"
         id="tspan57922"
         style="font-style:normal;font-variant:normal;font-weight:bold;font-stretch:normal;font-size:12.7px;font-family:'Times New Roman';-inkscape-font-specification:'Times New Roman,  Bold';fill:#d40000;stroke-width:0"
         x="56.149246"
         y="16.623135">NF KOMPUTER</tspan></text>
    <text
       xml:space="preserve"
       style="font-size:7.76111px;font-family:Arial;-inkscape-font-specification:Arial;text-align:center;text-anchor:middle;fill:#ff6600;stroke:#000000;stroke-width:0;stroke-dasharray:none;stroke-opacity:0.985663;paint-order:markers stroke fill"
       x="67.824425"
       y="24.483347"
       id="text57924-9"><tspan
         sodipodi:role="line"
         id="tspan57922-0"
         style="font-style:normal;font-variant:normal;font-weight:bold;font-stretch:normal;font-size:7.76111px;font-family:'Times New Roman';-inkscape-font-specification:'Times New Roman,  Bold';fill:#000000;stroke-width:0"
         x="67.824425"
         y="24.483347">IT Training Solutions</tspan></text>
    <path
       sodipodi:type="star"
       style="fill:#ffffff;stroke:#f70000;stroke-width:3.83033941;stroke-dasharray:none;stroke-opacity:0.985663;paint-order:markers stroke fill"
       id="path70611"
       inkscape:flatsided="false"
       sodipodi:sides="8"
       sodipodi:cx="213.51492"
       sodipodi:cy="26.597013"
       sodipodi:r1="27.428015"
       sodipodi:r2="19.473894"
       sodipodi:arg1="0.77587464"
       sodipodi:arg2="1.1685737"
       inkscape:rounded="-0.02"
       inkscape:randomized="0.012"
       d="m 232.76915,45.844126 c 0.16567,-0.172453 -11.52573,-1.377642 -11.30321,-1.468074 0.22253,-0.09043 -8.06049,9.719374 -7.82097,9.716123 0.23952,-0.0032 -7.56398,-9.746224 -7.34173,-9.652245 0.22224,0.09398 -12.49142,1.391475 -12.31791,1.559856 0.1735,0.168381 1.30223,-11.821396 1.39983,-11.603045 0.0976,0.218352 -9.50934,-7.682437 -9.50434,-7.442921 0.005,0.239516 9.84936,-8.058781 9.75671,-7.837376 -0.0926,0.221405 -1.84004,-11.8687391 -2.00711,-11.6939633 -0.16706,0.1747758 12.67863,0.8543486 12.45713,0.9489016 -0.2215,0.094553 7.25815,-9.20693369 7.01746,-9.20263818 -0.24069,0.004296 7.96901,9.28156778 7.74784,9.19041888 -0.22117,-0.091149 11.76889,-1.2067407 11.5969,-1.3738938 -0.17199,-0.1671532 -0.66032,12.2311608 -0.75241,12.0097178 -0.0921,-0.221444 9.2232,7.433882 9.21881,7.193254 -0.004,-0.240628 -9.19978,7.824067 -9.10994,7.601797 0.0899,-0.222271 0.79727,12.226541 0.96294,12.054088 z"
       inkscape:transform-center-x="-0.066960389"
       inkscape:transform-center-y="0.25070202"
       transform="matrix(1.0872574,0,0,1.0538062,20.720825,8.910399)" />
    <path
       sodipodi:type="star"
       style="fill:#ffffff;stroke:#ec2525;stroke-width:13.30404486;stroke-dasharray:none;stroke-opacity:0.985663;paint-order:markers stroke fill"
       id="path70611-1"
       inkscape:flatsided="false"
       sodipodi:sides="8"
       sodipodi:cx="213.51492"
       sodipodi:cy="26.597013"
       sodipodi:r1="27.428015"
       sodipodi:r2="19.473894"
       sodipodi:arg1="0.77587464"
       sodipodi:arg2="1.1685737"
       inkscape:rounded="-0.02"
       inkscape:randomized="0.012"
       d="m 232.76915,45.844126 c 0.16567,-0.172453 -11.52573,-1.377642 -11.30321,-1.468074 0.22253,-0.09043 -8.06049,9.719374 -7.82097,9.716123 0.23952,-0.0032 -7.56398,-9.746224 -7.34173,-9.652245 0.22224,0.09398 -12.49142,1.391475 -12.31791,1.559856 0.1735,0.168381 1.30223,-11.821396 1.39983,-11.603045 0.0976,0.218352 -9.50934,-7.682437 -9.50434,-7.442921 0.005,0.239516 9.84936,-8.058781 9.75671,-7.837376 -0.0926,0.221405 -1.84004,-11.8687391 -2.00711,-11.6939633 -0.16706,0.1747758 12.67863,0.8543486 12.45713,0.9489016 -0.2215,0.094553 7.25815,-9.20693369 7.01746,-9.20263818 -0.24069,0.004296 7.96901,9.28156778 7.74784,9.19041888 -0.22117,-0.091149 11.76889,-1.2067407 11.5969,-1.3738938 -0.17199,-0.1671532 -0.66032,12.2311608 -0.75241,12.0097178 -0.0921,-0.221444 9.2232,7.433882 9.21881,7.193254 -0.004,-0.240628 -9.19978,7.824067 -9.10994,7.601797 0.0899,-0.222271 0.79727,12.226541 0.96294,12.054088 z"
       inkscape:transform-center-x="-0.036133261"
       inkscape:transform-center-y="0.13823178"
       transform="matrix(0.58673057,0,0,0.58104837,127.8336,22.29784)" />
    <path
       sodipodi:type="star"
       style="fill:#ffffff;stroke:#f70000;stroke-width:3.83034;stroke-dasharray:none;stroke-opacity:0.985663;paint-order:markers stroke fill"
       id="path70611-8"
       inkscape:flatsided="false"
       sodipodi:sides="8"
       sodipodi:cx="213.51492"
       sodipodi:cy="26.597013"
       sodipodi:r1="27.428015"
       sodipodi:r2="19.473894"
       sodipodi:arg1="0.77587464"
       sodipodi:arg2="1.1685737"
       inkscape:rounded="-0.02"
       inkscape:randomized="0.012"
       d="m 232.76915,45.844126 c 0.16567,-0.172453 -11.52573,-1.377642 -11.30321,-1.468074 0.22253,-0.09043 -8.06049,9.719374 -7.82097,9.716123 0.23952,-0.0032 -7.56398,-9.746224 -7.34173,-9.652245 0.22224,0.09398 -12.49142,1.391475 -12.31791,1.559856 0.1735,0.168381 1.30223,-11.821396 1.39983,-11.603045 0.0976,0.218352 -9.50934,-7.682437 -9.50434,-7.442921 0.005,0.239516 9.84936,-8.058781 9.75671,-7.837376 -0.0926,0.221405 -1.84004,-11.8687391 -2.00711,-11.6939633 -0.16706,0.1747758 12.67863,0.8543486 12.45713,0.9489016 -0.2215,0.094553 7.25815,-9.20693369 7.01746,-9.20263818 -0.24069,0.004296 7.96901,9.28156778 7.74784,9.19041888 -0.22117,-0.091149 11.76889,-1.2067407 11.5969,-1.3738938 -0.17199,-0.1671532 -0.66032,12.2311608 -0.75241,12.0097178 -0.0921,-0.221444 9.2232,7.433882 9.21881,7.193254 -0.004,-0.240628 -9.19978,7.824067 -9.10994,7.601797 0.0899,-0.222271 0.79727,12.226541 0.96294,12.054088 z"
       inkscape:transform-center-x="-0.02065815"
       inkscape:transform-center-y="0.068687745"
       transform="matrix(0.33544374,0,0,0.2887229,101.14119,66.043714)" />
    <path
       sodipodi:type="star"
       style="fill:#ffffff;stroke:#ec2525;stroke-width:13.304;stroke-dasharray:none;stroke-opacity:0.985663;paint-order:markers stroke fill"
       id="path70611-1-3"
       inkscape:flatsided="false"
       sodipodi:sides="8"
       sodipodi:cx="213.51492"
       sodipodi:cy="26.597013"
       sodipodi:r1="27.428015"
       sodipodi:r2="19.473894"
       sodipodi:arg1="0.77587464"
       sodipodi:arg2="1.1685737"
       inkscape:rounded="-0.02"
       inkscape:randomized="0.012"
       d="m 232.76915,45.844126 c 0.16567,-0.172453 -11.52573,-1.377642 -11.30321,-1.468074 0.22253,-0.09043 -8.06049,9.719374 -7.82097,9.716123 0.23952,-0.0032 -7.56398,-9.746224 -7.34173,-9.652245 0.22224,0.09398 -12.49142,1.391475 -12.31791,1.559856 0.1735,0.168381 1.30223,-11.821396 1.39983,-11.603045 0.0976,0.218352 -9.50934,-7.682437 -9.50434,-7.442921 0.005,0.239516 9.84936,-8.058781 9.75671,-7.837376 -0.0926,0.221405 -1.84004,-11.8687391 -2.00711,-11.6939633 -0.16706,0.1747758 12.67863,0.8543486 12.45713,0.9489016 -0.2215,0.094553 7.25815,-9.20693369 7.01746,-9.20263818 -0.24069,0.004296 7.96901,9.28156778 7.74784,9.19041888 -0.22117,-0.091149 11.76889,-1.2067407 11.5969,-1.3738938 -0.17199,-0.1671532 -0.66032,12.2311608 -0.75241,12.0097178 -0.0921,-0.221444 9.2232,7.433882 9.21881,7.193254 -0.004,-0.240628 -9.19978,7.824067 -9.10994,7.601797 0.0899,-0.222271 0.79727,12.226541 0.96294,12.054088 z"
       inkscape:transform-center-x="-0.011147539"
       inkscape:transform-center-y="0.037873095"
       transform="matrix(0.18101978,0,0,0.15919622,134.18793,69.711619)" />
    <path
       sodipodi:type="star"
       style="fill:#ffffff;stroke:#f70000;stroke-width:3.83034;stroke-dasharray:none;stroke-opacity:0.985663;paint-order:markers stroke fill"
       id="path70611-8-3"
       inkscape:flatsided="false"
       sodipodi:sides="8"
       sodipodi:cx="213.51492"
       sodipodi:cy="26.597013"
       sodipodi:r1="27.428015"
       sodipodi:r2="19.473894"
       sodipodi:arg1="0.77587464"
       sodipodi:arg2="1.1685737"
       inkscape:rounded="-0.02"
       inkscape:randomized="0.012"
       d="m 232.76915,45.844126 c 0.16567,-0.172453 -11.52573,-1.377642 -11.30321,-1.468074 0.22253,-0.09043 -8.06049,9.719374 -7.82097,9.716123 0.23952,-0.0032 -7.56398,-9.746224 -7.34173,-9.652245 0.22224,0.09398 -12.49142,1.391475 -12.31791,1.559856 0.1735,0.168381 1.30223,-11.821396 1.39983,-11.603045 0.0976,0.218352 -9.50934,-7.682437 -9.50434,-7.442921 0.005,0.239516 9.84936,-8.058781 9.75671,-7.837376 -0.0926,0.221405 -1.84004,-11.8687391 -2.00711,-11.6939633 -0.16706,0.1747758 12.67863,0.8543486 12.45713,0.9489016 -0.2215,0.094553 7.25815,-9.20693369 7.01746,-9.20263818 -0.24069,0.004296 7.96901,9.28156778 7.74784,9.19041888 -0.22117,-0.091149 11.76889,-1.2067407 11.5969,-1.3738938 -0.17199,-0.1671532 -0.66032,12.2311608 -0.75241,12.0097178 -0.0921,-0.221444 9.2232,7.433882 9.21881,7.193254 -0.004,-0.240628 -9.19978,7.824067 -9.10994,7.601797 0.0899,-0.222271 0.79727,12.226541 0.96294,12.054088 z"
       inkscape:transform-center-x="-0.02065815"
       inkscape:transform-center-y="0.068687745"
       transform="matrix(0.33544374,0,0,0.2887229,-57.220644,30.89334)" />
    <path
       sodipodi:type="star"
       style="fill:#ffffff;stroke:#ec2525;stroke-width:13.304;stroke-dasharray:none;stroke-opacity:0.985663;paint-order:markers stroke fill"
       id="path70611-1-3-9"
       inkscape:flatsided="false"
       sodipodi:sides="8"
       sodipodi:cx="213.51492"
       sodipodi:cy="26.597013"
       sodipodi:r1="27.428015"
       sodipodi:r2="19.473894"
       sodipodi:arg1="0.77587464"
       sodipodi:arg2="1.1685737"
       inkscape:rounded="-0.02"
       inkscape:randomized="0.012"
       d="m 232.76915,45.844126 c 0.16567,-0.172453 -11.52573,-1.377642 -11.30321,-1.468074 0.22253,-0.09043 -8.06049,9.719374 -7.82097,9.716123 0.23952,-0.0032 -7.56398,-9.746224 -7.34173,-9.652245 0.22224,0.09398 -12.49142,1.391475 -12.31791,1.559856 0.1735,0.168381 1.30223,-11.821396 1.39983,-11.603045 0.0976,0.218352 -9.50934,-7.682437 -9.50434,-7.442921 0.005,0.239516 9.84936,-8.058781 9.75671,-7.837376 -0.0926,0.221405 -1.84004,-11.8687391 -2.00711,-11.6939633 -0.16706,0.1747758 12.67863,0.8543486 12.45713,0.9489016 -0.2215,0.094553 7.25815,-9.20693369 7.01746,-9.20263818 -0.24069,0.004296 7.96901,9.28156778 7.74784,9.19041888 -0.22117,-0.091149 11.76889,-1.2067407 11.5969,-1.3738938 -0.17199,-0.1671532 -0.66032,12.2311608 -0.75241,12.0097178 -0.0921,-0.221444 9.2232,7.433882 9.21881,7.193254 -0.004,-0.240628 -9.19978,7.824067 -9.10994,7.601797 0.0899,-0.222271 0.79727,12.226541 0.96294,12.054088 z"
       inkscape:transform-center-x="-0.011147539"
       inkscape:transform-center-y="0.037873095"
       transform="matrix(0.18101978,0,0,0.15919622,-24.173904,34.561245)" />
    <text
       xml:space="preserve"
       style="font-style:normal;font-variant:normal;font-weight:bold;font-stretch:normal;font-size:7.7611px;font-family:'Times New Roman';-inkscape-font-specification:'Times New Roman,  Bold';text-align:center;text-anchor:middle;fill:#ff0000;stroke:#ec2525;stroke-width:0;stroke-dasharray:none;stroke-opacity:0.985663;paint-order:markers stroke fill"
       x="249.44432"
       y="84.593285"
       id="text79451"><tspan
         sodipodi:role="line"
         id="tspan79449"
         style="font-style:normal;font-variant:normal;font-weight:bold;font-stretch:normal;font-family:Arial;-inkscape-font-specification:'Arial Bold';fill:#ffffff;stroke-width:0;stroke-dasharray:none"
         x="249.44432"
         y="84.593285">Damai Indonesia-ku</tspan></text>
    <text
       xml:space="preserve"
       style="font-style:normal;font-variant:normal;font-weight:bold;font-stretch:normal;font-size:7.7611px;font-family:Arial;-inkscape-font-specification:'Arial Bold';text-align:center;text-anchor:middle;fill:#ffffff;stroke:#ec2525;stroke-width:0;stroke-dasharray:none;stroke-opacity:0.985663;paint-order:markers stroke fill"
       x="245.27371"
       y="95.601891"
       id="text81059"><tspan
         sodipodi:role="line"
         id="tspan81057"
         style="stroke-width:0"
         x="245.27371"
         y="95.601891" /></text>
    <text
       xml:space="preserve"
       style="font-style:normal;font-variant:normal;font-weight:bold;font-stretch:normal;font-size:14.1111px;font-family:Arial;-inkscape-font-specification:'Arial Bold';text-align:center;text-anchor:middle;fill:#ffffff;stroke:#ec2525;stroke-width:0;stroke-dasharray:none;stroke-opacity:0.985663;paint-order:markers stroke fill"
       x="90.377747"
       y="57.465614"
       id="text86215"><tspan
         sodipodi:role="line"
         id="tspan86213"
         style="font-style:italic;font-variant:normal;font-weight:bold;font-stretch:normal;font-size:14.1111px;font-family:Arial;-inkscape-font-specification:'Arial Bold Italic';stroke-width:0"
         x="90.377747"
         y="57.465614">Selamat Tahun Baru</tspan></text>
    <text
       xml:space="preserve"
       style="font-style:italic;font-variant:normal;font-weight:bold;font-stretch:normal;font-size:14.1111px;font-family:Arial;-inkscape-font-specification:'Arial Bold Italic';text-align:center;text-anchor:middle;fill:#ffffff;stroke:#ec2525;stroke-width:0;stroke-dasharray:none;stroke-opacity:0.985663;paint-order:markers stroke fill"
       x="63.473385"
       y="73.399261"
       id="text89123"><tspan
         sodipodi:role="line"
         id="tspan89121"
         style="fill:#ffff00;stroke-width:0"
         x="63.473381"
         y="73.399261">1443 Hijriah</tspan></text>
  </g>
</svg>
